<svg xmlns="http://www.w3.org/2000/svg" viewBox="0 0 240 180" role="img" aria-label="Stage mic symbol">
  <defs>
    <linearGradient id="bg" x1="38" y1="10" x2="204" y2="174" gradientUnits="userSpaceOnUse">
      <stop stop-color="#637391"/>
      <stop offset=".55" stop-color="#253246"/>
      <stop offset="1" stop-color="#121722"/>
    </linearGradient>
    <linearGradient id="metal" x1="74" y1="38" x2="168" y2="126" gradientUnits="userSpaceOnUse">
      <stop stop-color="#f2f7ff"/>
      <stop offset=".28" stop-color="#98aec7"/>
      <stop offset=".64" stop-color="#445972"/>
      <stop offset="1" stop-color="#172234"/>
    </linearGradient>
    <filter id="shadow" x="-20%" y="-25%" width="140%" height="150%">
      <feDropShadow dx="0" dy="12" stdDeviation="8" flood-color="#000" flood-opacity=".48"/>
    </filter>
  </defs>
  <rect x="14" y="12" width="212" height="156" rx="24" fill="url(#bg)"/>
  <path d="M31 24h155c18 0 28 10 28 28v42c-16-37-66-55-183-42Z" fill="#fff" opacity=".12"/>
  <g filter="url(#shadow)">
    <path d="M71 126 142 55l17 17-71 71c-7 7-20-10-17-17Z" fill="#242f42"/>
    <rect x="119" y="28" width="62" height="72" rx="25" transform="rotate(45 150 64)" fill="url(#metal)"/>
    <path d="M130 53c16-16 33-18 44-8" fill="none" stroke="#ffffff" stroke-width="8" stroke-linecap="round" opacity=".38"/>
    <path d="m93 105 26 26" stroke="#d8e9ff" stroke-width="11" stroke-linecap="round"/>
    <path d="m102 96 26 26" stroke="#111827" stroke-width="8" stroke-linecap="round" opacity=".38"/>
    <ellipse cx="74" cy="134" rx="18" ry="12" transform="rotate(45 74 134)" fill="#d6e7ff"/>
  </g>
  <path d="M24 142c45 18 130 20 192-9v13c0 13-10 22-24 22H39c-10 0-15-6-15-16Z" fill="#000" opacity=".2"/>
</svg>
